Patient4_TMGait_0pt5_01_right_03_EMG.mot
version=1
nRows=33
nColumns=33
inDegrees=no
endheader
time	1LAddLong	2LGlutMax	3LGlutMed	4LIliopsoas	5LSemiMemb	6LBicFemLong	7LRecFem	8LVastMed	9LVastLat	10LGasMed	11LTibAnt	12lTibPost	13LPeroneusLong	14LSol	15LExtDigLong	16LFlexDigLong	17RAddLong	18RGlutMax	19RGlutMed	20RIliopsoas	21RSemiMemb	22RBicFemLong	23RRecFem	24RVastMed	25RVastLat	26RGasMed	27RTibAnt	28RTibPost	29RPeroneusLong	30RSol	31RExtDigLong	32RFlexDigLong
4.635	0.015564	-0.074768	-0.05249	0.005035	0.004425	-0.014496	0.075989	0.018311	0.024261	-0.012207	0.047455	0.005646	0.012665	-0.027008	-0.76416	-0.008392	-0.01236	-0.019684	0.5545	0.005035	-0.032196	0.063019	0.1265	-0.071564	0.001068	0.33676	-0.11475	0.002899	-0.054169	-0.019531	-0.003052	0.013733
4.636	0.010223	-0.067139	-0.047455	-0.005951	0.016327	-0.002289	0.060272	0.002747	-0.004272	0.002136	0.088501	0.001221	0.050201	-0.023041	-0.64255	-0.023041	0.00351	-0.044556	0.383	-0.023804	-0.065613	0.047302	0.10254	-0.065155	-0.000305	0.26611	0.007324	0.004578	-0.17471	-0.034485	0.008698	0.011292
4.637	0.005951	-0.041962	-0.027466	0.004883	0.01358	-0.004883	0.046234	0.007782	0.027161	0.01236	0.047913	0.002136	0.063782	-0.020599	-0.66681	-0.017242	0.031891	-0.099487	0.2475	-0.064392	-0.19638	0.020294	0.10437	-0.091705	0.003052	0.18646	0.2243	0.003052	-0.25238	-0.050812	-0.004578	0.001526
4.638	-0.00061	-0.06958	-0.036926	0.015259	0.019684	0.00061	0.11383	0.00885	0.032501	0.016022	0.088196	0.004578	0.037994	-0.18143	-0.40054	-0.00351	0.06073	-0.052338	0.20859	-0.09552	-0.22461	-0.009155	0.11856	-0.10834	-0.011597	0.10757	0.11154	0.001678	-0.14755	0.000458	-0.002747	-0.000153
4.639	0.002441	-0.046539	0.018463	0.009918	0.012817	0.004425	0.16708	0.008392	0.030823	0.020905	-0.05127	0.003815	-0.000763	-0.27161	-0.050812	-0.002289	0.036926	-0.068817	0.052643	-0.090332	-0.1506	-0.059509	0.11581	-0.070343	0.006409	0.046997	-0.059204	0.000458	-0.061188	-0.020447	0.001678	-0.001984
4.64	-0.001831	-0.028381	0.026398	-0.004425	0.009308	-0.001984	0.16342	0.005188	-0.005493	0.024567	-0.12863	0.000763	-0.029297	-0.21057	0.12375	-0.007019	0.040436	-0.039825	0.31799	-0.024261	0.18539	-0.073853	0.1062	-0.071411	0.011597	-0.007629	-0.15137	0.001221	-0.050812	-0.093231	-0.000305	0.00946
4.641	-0.002441	-0.048981	-0.010986	0.004425	-0.00061	0.003967	0.17731	0.005341	-0.013733	0.03067	-0.14481	0.001526	-0.036621	-0.18341	0.20126	-0.001068	0.014191	-0.003815	0.26215	0.10605	0.28397	0.015869	0.07782	-0.058289	0.001373	-0.04364	-0.25909	0.005646	0.030823	-0.082092	-0.005493	0.010834
4.642	0.00061	-0.028381	-0.013428	0.013885	-0.007477	-0.012054	0.22385	0.009613	0.053101	0.03952	-0.14084	0.00351	-0.036621	-0.075531	0.2945	0.00412	-0.023651	-0.045319	0.22308	0.16693	0.13412	-0.04776	0.10483	-0.047913	0.002899	-0.064087	-0.024719	0	0.068359	-0.12543	-0.002594	0.015259
4.643	0.003662	-0.033417	0.007629	0.008087	0.001373	-0.014801	0.1831	0.006104	0.076447	0.018311	-0.092163	0.006714	-0.00061	-0.054474	0.32837	-0.004883	-0.017853	-0.062103	0.068817	0.1413	-0.1001	-0.005951	0.1004	-0.050507	0.007935	-0.079803	-0.34058	0.002747	0.067291	-0.20126	-0.002441	0.011597
4.644	0.007019	-0.067444	-0.007172	-0.007477	0.005798	0.002747	0.1445	0.007324	0.072021	0.020294	0.055237	0.00824	0.031281	-0.13062	0.28748	-0.016174	-0.005341	-0.038147	-0.075531	0.12161	-0.14404	0.071259	0.11673	-0.069427	0.016174	-0.077667	-0.87311	0.000916	0.24445	-0.20767	-0.003357	0.016327
4.645	-0.003204	-0.037384	0.022888	-0.020142	0.020447	-0.007019	0.19089	0.001373	0.04837	-0.00412	0.22324	0.007324	0.026245	-0.10712	0.32074	0.011902	-0.005798	-0.072937	0.23605	0.12741	-0.001984	0.1294	0.10498	-0.075378	0.019684	-0.073853	-0.63355	-0.002289	0.30838	-0.16174	-0.002136	0.010223
4.646	-0.002289	-0.051727	0.086212	0.005646	0.030212	-0.002441	0.23468	0.00824	0.034943	-0.014038	0.18845	0.001831	0.020752	-0.018158	0.25207	0.006256	-0.00061	-0.06424	0.37003	0.02655	0.22797	0.1004	0.092316	-0.044403	0.024719	-0.079193	0.11826	-0.006714	0.18295	-0.10025	-0.005646	0.023041
4.647	-0.004272	-0.054474	0.03006	-0.006866	0.014343	-0.001221	0.21713	0.003815	0.025024	-0.005035	-0.002594	0.003815	0.06134	-0.028076	0.21683	0.00061	-0.012054	-0.079346	-0.005341	-0.048218	0.11917	0.11261	0.06897	0.003967	0.062866	-0.093079	0.16632	0.00061	0.10086	0.02533	-0.001068	0.005188
4.648	0.009918	-0.035858	-0.046997	0.005951	0.012817	-0.005341	0.092316	0.01236	0.033112	0.00412	-0.16281	0.013123	0.069733	-0.046692	0.1297	-0.002289	-0.018463	-0.061798	-0.10346	-0.02121	0.022888	0.10071	-0.045013	0.005798	0.040741	-0.089264	-0.11856	-0.000153	0.06897	0.045624	-0.003357	-0.000458
4.649	0.004883	-0.023651	-0.006256	0.007172	0.016174	-0.000458	0.16281	0.006714	0.035858	0.038452	-0.016327	0.007324	0.069427	-0.040283	-0.11444	-0.00061	-0.027161	-0.13184	-0.14603	0.013885	-0.049133	0.070343	0.047455	0.010529	0.031738	-0.091858	-0.23407	0.000916	0.016174	0.11627	-0.000916	0.000305
4.65	-0.005493	-0.009003	0.048981	0.01236	0.012665	0.001526	0.23911	-0.004272	0.01297	-0.010376	0.003662	0.010071	0.013123	-0.035553	-0.10056	-0.006409	-0.017242	-0.06073	-0.25589	-0.007172	-0.076599	0.010071	0.089264	-0.029144	0.014343	-0.097961	0.01236	-0.000916	-0.070343	0.15518	-0.000916	-0.009003
4.651	-0.00946	-0.001831	0.078735	0.004425	0.014343	0.010529	0.14389	0.003815	0.015869	0.010376	0.020447	0.001221	-0.015564	-0.031738	-0.11017	-0.003204	0.000763	-0.054626	-0.1265	-0.082703	0.002747	-0.005798	0.063629	-0.012512	0.015106	-0.10544	-0.029449	0.000458	-0.034943	0.22659	0.002289	-0.010223
4.652	0.002899	-0.010223	0.20508	-0.006104	0.010376	0.001526	0.10376	0.010834	0.004578	0.00412	0.060425	0.00412	-0.031738	-0.009766	-0.026245	0.001984	0.016785	-0.062103	-0.097198	-0.03891	0.18509	-0.030212	0.096588	-0.066681	0.00885	-0.11246	-0.074615	-0.000763	0.027771	0.15091	-0.005035	-0.006104
4.653	0.005493	-0.014343	0.29953	-0.006104	-0.00412	0.019684	0.17197	0.014343	0.008392	0.026703	0.10559	0.003052	-0.07782	0.005341	0.039825	-0.012665	0.047607	-0.06546	-0.048676	0.082245	0.1059	-0.063324	0.061798	-0.053253	-0.018158	-0.13275	0.005951	-0.005646	0.13107	0.0737	0.00351	0.001984
4.654	0.001984	-0.031891	0.1207	-0.001984	-0.015564	0.016937	0.2121	0.007477	-0.02533	0.015411	0.13748	-0.003662	-0.082245	-0.011292	0.056	-0.006409	0.059052	-0.092621	-0.13641	0.12497	0.033569	-0.097504	0.10071	-0.069275	-0.025482	-0.14557	0.070038	-0.005035	0.22415	0.034027	0.000153	-0.004883
4.655	0.001984	-0.025024	0.15732	-0.009766	-0.020599	-0.000458	0.21088	0.001221	-0.088043	-0.001221	0.097961	0.00412	-0.059814	-0.000305	0.030212	-0.008392	0.044556	-0.098114	-0.10605	0.070343	-0.011597	-0.1059	0.1004	-0.047607	-0.014801	-0.1355	0.14313	-0.008545	0.087585	-0.010529	-0.003662	0.001984
4.656	-0.006561	-0.008545	0.10239	0.024719	0.007629	0.007629	0.24033	0.007782	-0.026855	-0.006561	-0.040588	0.005951	-0.019226	-0.011139	-0.061646	-0.02243	0.023346	-0.15961	-0.041656	0.003662	-0.031586	-0.13718	0.077972	-0.032959	-0.006409	-0.11429	0.24658	-0.005493	-0.14954	-0.033264	-0.004883	-0.002136
4.657	-0.005646	-0.014801	0.018616	0.014801	-0.015259	0.030365	0.21225	0.013885	0.075989	0.017242	-0.091095	0.006714	-0.02182	-0.018463	0.063171	-0.008698	0.00351	-0.17227	-0.20767	-0.062866	0.012207	-0.11063	0.10086	-0.082855	-0.005341	-0.054169	0.30472	-0.010834	-0.16129	0.029602	-0.001831	0.003052
4.658	-0.010681	0.020142	-0.055237	-0.020752	-0.11398	0.019379	0.14664	0.014954	0.044098	0.030518	-0.094452	0.001678	-0.044708	0.036621	0.047607	-0.014648	-0.000305	-0.10834	-0.17395	-0.049286	0.006866	-0.10712	0.084839	-0.065002	-0.015564	-0.014496	0.08667	0.002289	-0.023956	0.13382	-0.001526	0.002136
4.659	-0.006714	0.05188	0.018768	0.006256	-0.075073	-0.016327	0.19379	0.015259	0.001831	-0.007782	-0.17075	0.006104	0.067749	0.092773	0.13046	-0.050964	0.001526	-0.14267	-0.095062	0.094604	-0.017548	-0.11032	0.081024	-0.083923	-0.002899	-0.047455	-0.12192	0.006409	0.092773	0.1265	0.000763	0.00885
4.66	0.005035	0.03006	0.069885	0	0.025024	-0.068054	0.2034	0.014954	0.005341	-0.052338	-0.11459	0.013123	0.14313	0.11597	0.24262	-0.58319	0.0177	-0.15686	-0.19516	0.09903	0.005646	-0.088806	0.092926	-0.081635	-0.003967	-0.06424	-0.14587	0.00061	0.030518	0.074768	-0.000305	0.012817
4.661	0.017548	0.024719	0.11047	0.012817	0.16052	-0.10544	0.20966	0.003052	0.005646	-0.071259	0.092468	0.001068	0.10773	0.11063	1.1728	0.53757	0.02594	-0.16327	-0.36118	0.053711	0.007324	-0.07431	0.065918	-0.15854	0.014038	-0.06424	-0.013123	-0.000305	-0.12726	0.046082	-0.008545	0.007324
4.662	0.023346	0.027161	0.069122	0.005035	0.11322	-0.08194	0.21622	-0.003204	0.007629	-0.016327	0.1593	-0.006714	0.027161	0.11078	-0.14542	0.2417	0.027008	-0.1268	-0.31342	-0.003662	-0.044708	-0.057831	0.11978	-0.15198	-0.002899	-0.058594	0.11841	-0.00473	-0.21713	0.020142	-0.004883	0.003357
4.663	0.026093	0.006714	0.055695	-0.002594	0.048828	-0.027466	0.2269	-0.007324	0.01236	0.007629	0.21347	0.00351	-0.041046	0.065918	-0.33127	-0.18784	0.03067	-0.10208	-0.041351	-0.12146	-0.15991	-0.035095	0.10742	-0.168	0.006104	-0.056763	0.11688	-0.007019	-0.072784	0.004425	-0.001678	0.001678
4.664	0.022583	0.024719	-0.027466	-0.005493	0.019379	0.019073	0.20584	0	-0.015106	0.007782	0.21118	0.005341	-0.05661	0.071411	-0.70618	-0.19241	0.046692	-0.11627	-0.084686	-0.13962	-0.28397	-0.01709	0.093536	-0.093079	0.017242	-0.056152	0.033875	-0.005035	0.19653	-0.022278	-0.001068	-0.004272
4.665	0.005035	0.016022	-0.13001	0.001373	0.004272	0.026398	0.23789	-0.004272	-0.029907	0.023346	0.159	0.002747	-0.048828	0.030823	-0.36667	0.49072	0.041809	-0.13534	-0.084686	-0.083771	-0.17349	-0.004883	0.031891	-0.044403	0.020599	-0.058746	0.019379	-0.003204	-0.068665	0.033112	-0.010071	-0.008087
4.666	0.008087	0.046539	-0.066376	0.003967	-0.019989	-0.028839	0.21347	0.000458	-0.035858	0.043335	-0.026245	0.00412	-0.098877	-0.014191	-0.15671	0.001373	0.040588	-0.092316	-0.059662	0.026703	0.03006	0.014496	0.049286	-0.03006	0.018311	-0.062714	0.031281	-0.005188	0.1384	0.071564	-0.002441	-0.010986
4.667	0.007629	0.024261	0.018311	-0.002747	0.001831	-0.025177	0.21744	-0.000153	-0.041046	0.001526	-0.15427	0.003357	-0.13062	-0.035095	0.001984	-0.075073	0.032806	-0.075226	-0.076447	0.18753	0.13672	-0.018921	0.080109	-0.015717	0.032349	-0.055084	0.12512	0.001678	0.43594	-0.007629	-0.00061	-0.014954
